<?xml version="1.0" standalone="no"?>
<!DOCTYPE svg PUBLIC "-//W3C//DTD SVG 20010904//EN"
 "http://www.w3.org/TR/2001/REC-SVG-20010904/DTD/svg10.dtd">
<svg version="1.0" xmlns="http://www.w3.org/2000/svg"
 width="141.000000pt" height="207.000000pt" viewBox="0 0 141.000000 207.000000"
 preserveAspectRatio="xMidYMid meet">
<metadata>
Created by potrace 1.16, written by Peter Selinger 2001-2019
</metadata>
<g transform="translate(0.000000,207.000000) scale(0.100000,-0.100000)"
fill="#000000" stroke="none">
<path d="M652 1968 c-7 -7 -12 -18 -12 -24 0 -25 -122 -440 -151 -512 -69
-172 -174 -277 -326 -327 -58 -18 -69 -41 -26 -51 15 -4 226 -4 469 -1 242 4
444 4 448 0 3 -3 -16 -21 -43 -39 -129 -87 -180 -185 -303 -584 -23 -75 -23
-75 -28 243 -3 201 -9 317 -15 317 -14 0 -14 -820 0 -821 6 0 24 55 41 123 92
361 165 547 253 637 46 47 150 108 212 124 12 3 19 12 17 19 -4 10 -99 14
-479 18 -474 5 -474 5 -424 34 28 16 75 55 105 86 83 84 114 153 227 515 28
90 28 90 31 -247 2 -291 4 -338 17 -338 13 0 15 54 15 414 0 228 -4 417 -8
420 -5 3 -14 0 -20 -6z"/>
</g>
</svg>
